<svg id="Capa_1" data-name="Capa 1" xmlns="http://www.w3.org/2000/svg" viewBox="0 0 43.95 53.68"><defs><style>.cls-1{fill:#4d657f;}</style></defs><title>Sin título-1</title><path class="cls-1" d="M13.59,0h21a2.93,2.93,0,0,1,3,2.27,4.1,4.1,0,0,1,.09,1c0,13.69,0,27.38,0,41.07a3.16,3.16,0,0,1-3.27,3.27c-10.39,0-20.78,0-31.17,0A3,3,0,0,1,0,44.35Q0,29.2,0,14.07c0-.4.13-.5.51-.5,2.85,0,5.69,0,8.54,0a4.47,4.47,0,0,0,2.85-.84,4.15,4.15,0,0,0,1.69-3.48c0-2.85,0-5.7,0-8.54Zm5.89,27.56c-3.39,0-6.78,0-10.16,0A1.54,1.54,0,0,0,8,28.11a1.25,1.25,0,0,0-.18,1.42,1.52,1.52,0,0,0,1.5.84H29.57a2.1,2.1,0,0,0,.86-.17,1.37,1.37,0,0,0,.76-1.56,1.47,1.47,0,0,0-1.45-1.07Zm0-4.81h3.72c2.2,0,4.4,0,6.6,0a1.42,1.42,0,0,0,1.4-1,1.33,1.33,0,0,0-.74-1.57,2.69,2.69,0,0,0-1-.16H9.53A1.58,1.58,0,0,0,9,20a2.92,2.92,0,0,0-.91.52,1.14,1.14,0,0,0-.21,1.36,1.41,1.41,0,0,0,1.37.87ZM14.28,37.51c1.69,0,3.38,0,5.07,0a1.4,1.4,0,0,0,1.48-1.66,1.46,1.46,0,0,0-1.58-1.15H9.36a1.42,1.42,0,1,0,0,2.81C11,37.52,12.64,37.51,14.28,37.51Z"/><path class="cls-1" d="M39.39,6.13a13.67,13.67,0,0,1,2.13,0,2.93,2.93,0,0,1,2.42,3.09c0,.84,0,1.67,0,2.51V50.2a3.48,3.48,0,0,1-.59,2.24,3.06,3.06,0,0,1-2.59,1.22H23.85c-4.78,0-9.57,0-14.35,0a3.09,3.09,0,0,1-3.27-3.27c0-.36,0-.72,0-1.15H34.5a4.64,4.64,0,0,0,4.42-2.62,5.11,5.11,0,0,0,.48-2.44q0-18.69,0-37.4Z"/><path class="cls-1" d="M11.92,5.42V9.19a2.5,2.5,0,0,1-2.59,2.72c-2.62,0-5.24,0-7.85,0A1.28,1.28,0,0,1,.56,9.64L9.62.57A1.34,1.34,0,0,1,11.13.15a1.33,1.33,0,0,1,.79,1.4C11.9,2.84,11.92,4.13,11.92,5.42Z"/></svg>